<?xml version="1.0" encoding="UTF-8"?>
<!DOCTYPE svg PUBLIC "-//W3C//DTD SVG 1.1//EN" "http://www.w3.org/Graphics/SVG/1.1/DTD/svg11.dtd">
<!-- Creator: CorelDRAW -->
<svg xmlns="http://www.w3.org/2000/svg" xml:space="preserve" width="2048px" height="2048px" style="shape-rendering:geometricPrecision; text-rendering:geometricPrecision; image-rendering:optimizeQuality; fill-rule:evenodd; clip-rule:evenodd"
viewBox="0 0 2048 2048"
 xmlns:xlink="http://www.w3.org/1999/xlink">
 <defs>
  <style type="text/css">
   <![CDATA[
    .fil2 {fill:none}
    .fil12 {fill:black}
    .fil8 {fill:#212121}
    .fil11 {fill:#424242}
    .fil9 {fill:#43A047}
    .fil10 {fill:#55ABDB}
    .fil7 {fill:#616161}
    .fil6 {fill:#757575}
    .fil1 {fill:#E6CA75}
    .fil0 {fill:#FFE082}
    .fil5 {fill:#263238;fill-rule:nonzero}
    .fil3 {fill:#29B6F6;fill-rule:nonzero}
    .fil4 {fill:#81D4FA;fill-rule:nonzero}
   ]]>
  </style>
   <clipPath id="id0">
    <path d="M1024 0c565.541,0 1024,458.459 1024,1024 0,565.541 -458.459,1024 -1024,1024 -565.541,0 -1024,-458.459 -1024,-1024 0,-565.541 458.459,-1024 1024,-1024z"/>
   </clipPath>
 </defs>
 <g id="Layer_x0020_1">
  <metadata id="CorelCorpID_0Corel-Layer"/>
  <path class="fil0" d="M1024 0c565.541,0 1024,458.459 1024,1024 0,565.541 -458.459,1024 -1024,1024 -565.541,0 -1024,-458.459 -1024,-1024 0,-565.541 458.459,-1024 1024,-1024z"/>
  <g style="clip-path:url(#id0)">
   <g id="_308721064">
    <g>
     <polygon id="_3030624881" class="fil1" points="1354.8,606.356 2490.68,1742.24 2493.4,1745.47 2496.04,1748.76 2498.6,1752.11 2501.08,1755.53 2503.48,1759.01 2505.8,1762.54 2508.03,1766.13 2510.18,1769.78 2512.24,1773.48 2514.21,1777.24 2516.1,1781.04 2517.89,1784.9 2519.6,1788.8 2521.21,1792.75 2522.72,1796.75 2524.14,1800.79 2525.47,1804.87 2526.69,1809 2527.82,1813.16 2528.84,1817.36 2529.77,1821.6 2530.59,1825.88 2531.3,1830.19 2531.91,1834.53 2532.41,1838.9 2532.81,1843.3 2533.09,1847.73 2533.26,1852.18 2533.32,1856.67 2533.27,1861.17 2533.1,1865.7 1397.22,729.816 1397.39,725.288 1397.44,720.784 1397.38,716.303 1397.21,711.846 1396.93,707.417 1396.53,703.015 1396.03,698.644 1395.42,694.303 1394.71,689.995 1393.89,685.72 1392.96,681.481 1391.94,677.279 1390.81,673.115 1389.59,668.991 1388.26,664.908 1386.84,660.867 1385.33,656.871 1383.72,652.92 1382.01,649.016 1380.22,645.16 1378.33,641.354 1376.36,637.6 1374.3,633.898 1372.15,630.251 1369.91,626.659 1367.6,623.124 1365.2,619.647 1362.72,616.231 1360.16,612.876 1357.52,609.584 "/>
     <polygon id="_303063064" class="fil1" points="1118.3,516.813 2254.18,1652.7 2255.79,1654.52 2257.36,1656.37 2258.91,1658.24 2260.44,1660.14 2261.93,1662.06 2263.39,1664.01 2264.83,1665.97 2266.23,1667.96 2267.6,1669.97 2268.95,1672 2270.26,1674.06 2271.54,1676.13 2272.79,1678.23 2274.01,1680.34 2275.2,1682.48 2276.35,1684.63 2277.47,1686.81 2278.56,1689 2279.62,1691.21 2280.64,1693.45 2281.63,1695.69 2282.58,1697.96 1146.7,562.078 1145.75,559.812 1144.76,557.563 1143.74,555.332 1142.68,553.121 1141.59,550.927 1140.47,548.752 1139.32,546.597 1138.13,544.461 1136.91,542.346 1135.66,540.25 1134.38,538.176 1133.07,536.122 1131.72,534.089 1130.35,532.078 1128.94,530.09 1127.51,528.123 1126.05,526.179 1124.55,524.259 1123.03,522.361 1121.48,520.487 1119.9,518.638 "/>
     <polygon id="_303063688" class="fil1" points="1340.73,848.783 2476.61,1984.67 2473.46,1987.45 2470.24,1990.16 2466.95,1992.8 2463.6,1995.36 2460.18,1997.85 2456.71,2000.26 2453.17,2002.59 2449.58,2004.84 2445.93,2007.02 2442.22,2009.11 2438.46,2011.12 2434.65,2013.04 2430.78,2014.88 2426.87,2016.64 2422.91,2018.3 2418.9,2019.89 2414.85,2021.38 2410.75,2022.78 2406.61,2024.1 2402.44,2025.32 2398.22,2026.45 2393.96,2027.48 2389.67,2028.42 2385.34,2029.27 2380.98,2030.02 2376.59,2030.67 2372.17,2031.22 2367.72,2031.67 2363.24,2032.03 2358.74,2032.28 2354.21,2032.43 2349.66,2032.47 1213.78,896.588 1218.33,896.544 1222.86,896.396 1227.36,896.146 1231.84,895.792 1236.29,895.339 1240.71,894.786 1245.1,894.135 1249.46,893.387 1253.79,892.541 1258.08,891.6 1262.34,890.564 1266.55,889.435 1270.73,888.213 1274.87,886.9 1278.97,885.497 1283.02,884.004 1287.03,882.422 1290.99,880.753 1294.9,878.998 1298.77,877.158 1302.58,875.233 1306.34,873.225 1310.05,871.135 1313.7,868.962 1317.29,866.71 1320.83,864.379 1324.3,861.969 1327.72,859.482 1331.07,856.919 1334.36,854.281 1337.58,851.568 "/>
     <polygon id="_303063952" class="fil1" points="1213.78,896.588 2349.66,2032.47 2308,2032.4 1172.12,896.518 "/>
     <polygon id="_303063304" class="fil1" points="1172.12,896.518 2308,2032.4 2307.33,2032.42 2306.66,2032.43 2305.98,2032.44 2305.31,2032.46 2304.63,2032.46 2303.96,2032.47 2303.28,2032.47 2302.6,2032.47 1166.72,896.588 1167.4,896.588 1168.07,896.586 1168.75,896.58 1169.43,896.573 1170.1,896.563 1170.78,896.551 1171.45,896.535 "/>
     <polygon id="_303063640" class="fil1" points="1166.72,896.588 2302.6,2032.47 1924.99,2031.83 789.106,895.944 "/>
     <polygon id="_303063712" class="fil1" points="789.106,895.944 1924.99,2031.83 1924.08,2031.82 1923.2,2031.81 1922.35,2031.8 1921.53,2031.79 1920.73,2031.76 1919.96,2031.74 1919.22,2031.71 1918.5,2031.68 782.621,895.796 783.337,895.829 784.08,895.857 784.849,895.882 785.646,895.903 786.471,895.92 787.321,895.932 788.2,895.94 "/>
     <polygon id="_303063664" class="fil1" points="782.621,895.796 1918.5,2031.68 1914.98,2031.46 1911.48,2031.14 1908.02,2030.74 1904.58,2030.25 1901.17,2029.67 1897.79,2029 1894.45,2028.25 1891.14,2027.42 1887.86,2026.51 1884.62,2025.51 1881.41,2024.44 1878.24,2023.29 1875.11,2022.06 1872.01,2020.75 1868.96,2019.37 1865.95,2017.92 1862.97,2016.39 1860.04,2014.8 1857.15,2013.13 1854.31,2011.4 1851.51,2009.59 1848.76,2007.73 1846.05,2005.79 1843.39,2003.8 1840.78,2001.74 1838.22,1999.62 1835.71,1997.44 1833.25,1995.2 1830.84,1992.91 694.96,857.026 697.367,859.321 699.827,861.559 702.338,863.738 704.9,865.857 707.51,867.916 710.169,869.912 712.876,871.844 715.629,873.712 718.429,875.514 721.273,877.249 724.16,878.914 727.092,880.511 730.065,882.036 733.079,883.49 736.133,884.87 739.227,886.176 742.36,887.405 745.53,888.558 748.737,889.632 751.979,890.626 755.256,891.54 758.567,892.372 761.912,893.121 765.289,893.786 768.696,894.363 772.134,894.856 775.602,895.259 779.098,895.573 "/>
     <polygon id="_303063760" class="fil1" points="1397.22,729.816 2533.1,1865.7 2532.82,1870.18 2532.42,1874.62 2531.93,1879.02 2531.32,1883.37 2530.61,1887.69 2529.79,1891.96 2528.88,1896.19 2527.86,1900.37 2526.74,1904.51 2525.52,1908.6 2524.2,1912.64 2522.79,1916.63 2521.29,1920.57 2519.69,1924.46 2518,1928.3 2516.22,1932.08 2514.35,1935.81 2512.4,1939.49 2510.35,1943.11 2508.23,1946.67 2506.02,1950.18 2503.73,1953.63 2501.35,1957.01 2498.9,1960.34 2496.37,1963.61 2493.77,1966.81 2491.09,1969.95 2488.34,1973.03 2485.51,1976.04 2482.61,1978.98 2479.65,1981.86 2476.61,1984.67 1340.73,848.783 1343.77,845.975 1346.73,843.099 1349.63,840.154 1352.45,837.145 1355.21,834.069 1357.89,830.929 1360.49,827.725 1363.02,824.46 1365.47,821.133 1367.85,817.745 1370.14,814.297 1372.35,810.791 1374.47,807.227 1376.52,803.607 1378.47,799.931 1380.34,796.199 1382.12,792.414 1383.81,788.575 1385.41,784.686 1386.91,780.745 1388.32,776.754 1389.64,772.713 1390.86,768.624 1391.98,764.488 1392.99,760.306 1393.91,756.079 1394.73,751.806 1395.44,747.492 1396.05,743.134 1396.54,738.735 1396.93,734.295 "/>
     <polygon id="_303063832" class="fil1" points="1334.03,948.681 2469.91,2084.56 2470.8,2085.54 2471.59,2086.59 2472.28,2087.72 2472.85,2088.92 2473.32,2090.17 2473.66,2091.48 2473.86,2092.84 2473.94,2094.23 2473.94,2557.24 2473.86,2558.64 2473.66,2559.99 2473.32,2561.3 2472.85,2562.56 2472.27,2563.75 2471.59,2564.88 2470.79,2565.94 2469.91,2566.91 2468.94,2567.8 2467.88,2568.59 2466.75,2569.28 2465.55,2569.86 2464.3,2570.32 2462.99,2570.66 2461.64,2570.87 2460.24,2570.94 2175.12,2570.94 1039.24,1435.05 1324.36,1435.05 1325.75,1434.98 1327.11,1434.77 1328.42,1434.44 1329.67,1433.97 1330.87,1433.39 1332,1432.71 1333.05,1431.91 1334.03,1431.03 1334.91,1430.05 1335.7,1429 1336.39,1427.87 1336.97,1426.67 1337.44,1425.42 1337.77,1424.11 1337.98,1422.75 1338.05,1421.36 1338.05,958.348 1337.98,956.955 1337.77,955.6 1337.44,954.291 1336.97,953.036 1336.39,951.839 1335.71,950.71 1334.92,949.654 "/>
     <polygon id="_303063928" class="fil1" points="1008.76,1435.05 2144.64,2570.94 1859.52,2570.94 1858.13,2570.87 1856.77,2570.66 1855.46,2570.32 1854.21,2569.86 1853.01,2569.28 1851.88,2568.59 1850.83,2567.8 714.948,1431.92 716.003,1432.71 717.132,1433.4 718.328,1433.97 719.584,1434.44 720.892,1434.77 722.247,1434.98 723.641,1435.05 "/>
     <polygon id="_303064672" class="fil1" points="1039.24,1435.05 2175.12,2570.94 2175.12,2625.75 1039.24,1489.86 "/>
     <polygon id="_303064696" class="fil1" points="1524.78,1521.69 2660.66,2657.57 2660.66,2688.06 1524.78,1552.17 "/>
     <polygon id="_303064600" class="fil1" points="1118.79,1495.23 2254.68,2631.11 2255.86,2632.41 2256.91,2633.81 2257.83,2635.32 2258.6,2636.92 2259.21,2638.59 2259.67,2640.34 2259.94,2642.14 2260.04,2644 2260.04,2657.57 1124.16,1521.69 1124.16,1508.12 1124.06,1506.26 1123.78,1504.46 1123.33,1502.71 1122.72,1501.03 1121.94,1499.44 1121.03,1497.93 1119.97,1496.53 "/>
     <polygon id="_303064120" class="fil1" points="929.692,1552.17 2065.57,2688.06 1659.11,2688.06 523.225,1552.17 "/>
     <polygon id="_303064144" class="fil1" points="1124.16,1552.17 2260.04,2688.06 2260.04,2701.62 2259.94,2703.48 2259.67,2705.29 2259.21,2707.04 2258.6,2708.71 2257.83,2710.31 2256.91,2711.81 2255.86,2713.22 2254.67,2714.52 2253.38,2715.7 2251.97,2716.75 2250.46,2717.67 2248.87,2718.44 2247.19,2719.06 2245.45,2719.51 2243.64,2719.79 2241.78,2719.88 2083.83,2719.88 2081.97,2719.79 2080.16,2719.51 2078.42,2719.06 2076.74,2718.44 2075.15,2717.67 2073.64,2716.75 2072.24,2715.7 936.354,1579.82 937.761,1580.87 939.266,1581.79 940.861,1582.56 942.537,1583.18 944.283,1583.63 946.091,1583.91 947.951,1584 1105.9,1584 1107.76,1583.91 1109.57,1583.63 1111.31,1583.18 1112.99,1582.56 1114.58,1581.79 1116.09,1580.87 1117.49,1579.82 1118.79,1578.64 1119.97,1577.34 1121.03,1575.93 1121.94,1574.43 1122.72,1572.83 1123.33,1571.16 1123.78,1569.41 1124.06,1567.6 1124.16,1565.74 "/>
     <polygon id="_303064360" class="fil1" points="1524.78,1552.17 2660.66,2688.06 2260.04,2688.06 1124.16,1552.17 "/>
    </g>
    <path id="_308721160" class="fil1" d="M1352.01 603.194c30.1819,33.3721 47.6363,78.2162 45.2055,126.621 -2.40827,47.9882 -23.7662,89.3788 -56.4827,118.968 -33.2788,30.0981 -78.3012,47.8878 -126.951,47.8052l-41.6587 -0.0708662c-1.79528,0.0496063 -3.59646,0.0744095 -5.40355,0.0708662l-377.614 -0.644882c-2.45197,-0.00354331 -4.61221,-0.0543308 -6.48426,-0.147638 -37.7303,-1.89449 -70.9004,-19.4681 -94.5639,-45.9863 -23.4284,-26.2536 -37.5603,-61.4067 -37.4977,-98.7875 0.00472441,-2.35984 0.0484252,-4.50945 0.133465,-6.44056 -0.0921261,-2.2689 -0.137008,-4.54725 -0.133465,-6.83268 0.00472441,-2.88071 0.0649607,-5.47441 0.179528,-7.76812 2.19095,-43.6465 21.8693,-82.278 51.913,-109.449 30.0473,-27.1736 70.4197,-42.8882 113.991,-40.7008 8.16615,0.409843 16.0276,1.3937 23.5488,2.90551 4.47638,-9.37914 9.92363,-18.1854 16.2071,-26.2984 9.63426,-21.0626 23.7284,-39.574 41.0185,-54.3886 29.6634,-25.4162 68.726,-39.9591 110.793,-37.8473 35.2571,1.76929 67.239,14.9469 92.5548,35.778 20.0658,16.513 35.941,37.8355 45.9366,62.0977 9.47835,-4.47874 19.4209,-8.13426 29.7331,-10.885 17.1508,-4.57323 35.3067,-6.59646 54.0083,-5.65748 48.4784,2.43307 91.3879,24.2906 121.566,57.6591zm-628.369 341.46l600.72 0c7.53071,0 13.6937,6.17126 13.6937,13.6937l0 463.011c0,7.52363 -6.17126,13.6949 -13.6937,13.6949l-285.117 0 0 54.8091 66.6544 0c10.0441,0 18.2587,8.21694 18.2587,18.2587l0 13.5662 400.62 0 0 30.4855 -400.62 0 0 13.5673c0,10.0429 -8.21575,18.2599 -18.2587,18.2599l-157.947 0c-10.0429,0 -18.2587,-8.21575 -18.2587,-18.2599l0 -13.5673 -406.467 0 0 -30.4855 406.467 0 0 -13.5662c0,-10.0417 8.21575,-18.2587 18.2587,-18.2587l60.8056 0 0 -54.8091 -285.116 0c-7.52245,0 -13.6925,-6.163 -13.6925,-13.6949l0 -463.011c0,-7.5319 6.16063,-13.6937 13.6925,-13.6937z"/>
   </g>
  </g>
  <path class="fil2" d="M1024 0c565.541,0 1024,458.459 1024,1024 0,565.541 -458.459,1024 -1024,1024 -565.541,0 -1024,-458.459 -1024,-1024 0,-565.541 458.459,-1024 1024,-1024z"/>
  <path class="fil3" d="M1230.44 545.535c48.4796,2.43307 91.389,24.2906 121.567,57.6591 30.1819,33.3721 47.6363,78.2162 45.2055,126.621 -2.40827,47.9882 -23.7662,89.3788 -56.4827,118.968 -33.2788,30.0981 -78.3012,47.8878 -126.951,47.8052l-412.043 -0.703938c-2.6752,-0.00472441 -5.03386,-0.0590552 -7.07599,-0.161811 -41.1709,-2.06575 -77.3658,-21.2421 -103.187,-50.178 -25.5638,-28.6488 -40.9855,-67.0064 -40.9158,-107.796 0.00472441,-2.88071 0.0649607,-5.47441 0.179528,-7.76812 2.19095,-43.6477 21.8693,-82.278 51.913,-109.449 30.0473,-27.1736 70.4197,-42.8882 113.991,-40.7008 9.04961,0.453544 17.7248,1.61339 25.9784,3.41457 1.37244,0.3 2.74134,0.618898 4.10433,0.955513 8.04804,-32.6481 26.1496,-61.1245 50.6918,-82.1516 29.6634,-25.4162 68.726,-39.9591 110.793,-37.8473 35.2559,1.76929 67.239,14.9469 92.5548,35.778 20.0658,16.513 35.941,37.8355 45.9366,62.0977 9.47835,-4.47756 19.4209,-8.13544 29.7331,-10.885 17.1508,-4.57323 35.3067,-6.59646 54.0071,-5.65748z"/>
  <path class="fil4" d="M1181.99 574.869c44.4284,2.22874 83.752,22.2603 111.409,52.8402 27.6591,30.5847 43.6548,71.6812 41.4284,116.041 -2.20748,43.9796 -21.7807,81.9107 -51.763,109.028 -30.4984,27.5823 -71.7591,43.8863 -116.343,43.8107l-377.614 -0.644882c-2.45079,-0.00472441 -4.61221,-0.0543308 -6.48426,-0.147638 -37.7303,-1.89449 -70.9004,-19.4681 -94.5639,-45.9863 -23.4284,-26.2547 -37.5614,-61.4067 -37.4977,-98.7875 0.00472441,-2.64095 0.0590552,-5.01733 0.165354,-7.11969 2.00788,-40.0004 20.0421,-75.4028 47.5748,-100.304 27.5362,-24.9036 64.5343,-39.3036 104.465,-37.3004 8.29371,0.415748 16.2437,1.47874 23.8087,3.12992 1.25787,0.275197 2.51103,0.56693 3.76063,0.876379 7.37481,-29.9209 23.9646,-56.0174 46.4563,-75.2871 27.1843,-23.2925 62.9823,-36.6213 101.535,-34.6855 32.3103,1.62165 61.6205,13.6984 84.8209,32.7886 18.3898,15.1323 32.9374,34.6736 42.0992,56.9079 8.68583,-4.10315 17.798,-7.45512 27.2481,-9.97442 15.7181,-4.19174 32.3563,-6.04607 49.4953,-5.18504z"/>
  <polygon class="fil5" points="1039.24,1409.63 1039.24,1505.11 1008.76,1505.11 1008.76,1409.63 "/>
  <path class="fil5" d="M523.225 1521.69l421.709 0 0 30.4855 -421.709 0 0 -30.4855zm580.835 0l420.716 0 0 30.4855 -420.716 0 0 -30.4855z"/>
  <path class="fil6" d="M947.951 1489.86l157.948 0c10.0417,0 18.2587,8.21694 18.2587,18.2599l0 57.6189c0,10.0417 -8.21694,18.2587 -18.2587,18.2587l-157.948 0c-10.0429,0 -18.2587,-8.21694 -18.2587,-18.2587l0 -57.6189c0,-10.0429 8.21575,-18.2599 18.2587,-18.2599z"/>
  <path class="fil7" d="M723.641 944.655l600.72 0c7.53071,0 13.6937,6.17126 13.6937,13.6937l0 463.011c0,7.52245 -6.17126,13.6937 -13.6937,13.6937l-600.72 0c-7.52245,0 -13.6937,-6.16182 -13.6937,-13.6937l0 -463.011c0,-7.5319 6.16182,-13.6937 13.6937,-13.6937z"/>
  <path class="fil8" d="M741.79 997.21l564.421 0c6.6189,0 12.0343,5.42599 12.0343,12.0331l0 34.3677c0,6.60709 -5.42717,12.0343 -12.0343,12.0343l-564.421 0c-6.60709,0 -12.0331,-5.41536 -12.0331,-12.0343l0 -34.3677c0,-6.6189 5.41418,-12.0331 12.0331,-12.0331z"/>
  <circle class="fil9" cx="759.214" cy="1027.37" r="10.9484"/>
  <circle class="fil9" cx="787.698" cy="1027.37" r="10.9484"/>
  <circle class="fil9" cx="816.183" cy="1027.37" r="10.9484"/>
  <circle class="fil10" cx="1260.63" cy="1027.37" r="10.9484"/>
  <circle class="fil10" cx="1289.12" cy="1027.37" r="10.9484"/>
  <rect class="fil11" x="841.41" y="1011.82" width="365.18" height="29.2146"/>
  <rect class="fil12" x="860.835" y="1020.23" width="12.6144" height="12.6144"/>
  <rect class="fil12" x="881.749" y="1020.23" width="12.6144" height="12.6144"/>
  <rect class="fil12" x="902.664" y="1020.23" width="12.6144" height="12.6144"/>
  <rect class="fil12" x="923.578" y="1020.23" width="12.6144" height="12.6144"/>
  <rect class="fil12" x="944.493" y="1020.23" width="12.6144" height="12.6144"/>
  <rect class="fil12" x="965.407" y="1020.23" width="12.6144" height="12.6144"/>
  <rect class="fil12" x="986.322" y="1020.23" width="12.6144" height="12.6144"/>
  <rect class="fil12" x="1007.24" y="1020.23" width="12.6144" height="12.6144"/>
  <rect class="fil12" x="1028.15" y="1020.23" width="12.6144" height="12.6144"/>
  <rect class="fil12" x="1049.07" y="1020.23" width="12.6144" height="12.6144"/>
  <rect class="fil12" x="1069.98" y="1020.23" width="12.6144" height="12.6144"/>
  <rect class="fil12" x="1090.89" y="1020.23" width="12.6144" height="12.6144"/>
  <rect class="fil12" x="1111.81" y="1020.23" width="12.6144" height="12.6144"/>
  <rect class="fil12" x="1132.72" y="1020.23" width="12.6144" height="12.6144"/>
  <rect class="fil12" x="1153.64" y="1020.23" width="12.6144" height="12.6144"/>
  <rect class="fil12" x="1174.55" y="1020.23" width="12.6144" height="12.6144"/>
  <path class="fil8" d="M741.79 1070.24l564.421 0c6.6189,0 12.0343,5.42717 12.0343,12.0343l0 34.3666c0,6.60709 -5.42717,12.0343 -12.0343,12.0343l-564.421 0c-6.60709,0 -12.0331,-5.41536 -12.0331,-12.0343l0 -34.3666c0,-6.6189 5.41418,-12.0343 12.0331,-12.0343z"/>
  <circle class="fil9" cx="759.214" cy="1100.41" r="10.9484"/>
  <circle class="fil9" cx="787.698" cy="1100.41" r="10.9484"/>
  <circle class="fil9" cx="816.183" cy="1100.41" r="10.9484"/>
  <circle class="fil10" cx="1260.63" cy="1100.41" r="10.9484"/>
  <circle class="fil10" cx="1289.12" cy="1100.41" r="10.9484"/>
  <rect class="fil11" x="841.41" y="1084.85" width="365.18" height="29.2146"/>
  <rect class="fil12" x="860.835" y="1093.26" width="12.6144" height="12.6144"/>
  <rect class="fil12" x="881.749" y="1093.26" width="12.6144" height="12.6144"/>
  <rect class="fil12" x="902.664" y="1093.26" width="12.6144" height="12.6144"/>
  <rect class="fil12" x="923.578" y="1093.26" width="12.6144" height="12.6144"/>
  <rect class="fil12" x="944.493" y="1093.26" width="12.6144" height="12.6144"/>
  <rect class="fil12" x="965.407" y="1093.26" width="12.6144" height="12.6144"/>
  <rect class="fil12" x="986.322" y="1093.26" width="12.6144" height="12.6144"/>
  <rect class="fil12" x="1007.24" y="1093.26" width="12.6144" height="12.6144"/>
  <rect class="fil12" x="1028.15" y="1093.26" width="12.6144" height="12.6144"/>
  <rect class="fil12" x="1049.07" y="1093.26" width="12.6144" height="12.6144"/>
  <rect class="fil12" x="1069.98" y="1093.26" width="12.6144" height="12.6144"/>
  <rect class="fil12" x="1090.89" y="1093.26" width="12.6144" height="12.6144"/>
  <rect class="fil12" x="1111.81" y="1093.26" width="12.6144" height="12.6144"/>
  <rect class="fil12" x="1132.72" y="1093.26" width="12.6144" height="12.6144"/>
  <rect class="fil12" x="1153.64" y="1093.26" width="12.6144" height="12.6144"/>
  <rect class="fil12" x="1174.55" y="1093.26" width="12.6144" height="12.6144"/>
  <path class="fil8" d="M741.79 1143.28l564.421 0c6.6189,0 12.0343,5.42717 12.0343,12.0343l0 34.3666c0,6.60709 -5.42717,12.0343 -12.0343,12.0343l-564.421 0c-6.60709,0 -12.0331,-5.41536 -12.0331,-12.0343l0 -34.3666c0,-6.6189 5.41418,-12.0343 12.0331,-12.0343z"/>
  <circle class="fil9" cx="759.214" cy="1173.44" r="10.9484"/>
  <circle class="fil9" cx="787.698" cy="1173.44" r="10.9484"/>
  <circle class="fil9" cx="816.183" cy="1173.44" r="10.9484"/>
  <circle class="fil10" cx="1260.63" cy="1173.44" r="10.9484"/>
  <circle class="fil10" cx="1289.12" cy="1173.44" r="10.9484"/>
  <rect class="fil11" x="841.41" y="1157.88" width="365.18" height="29.2146"/>
  <rect class="fil12" x="860.835" y="1166.3" width="12.6144" height="12.6144"/>
  <rect class="fil12" x="881.749" y="1166.3" width="12.6144" height="12.6144"/>
  <rect class="fil12" x="902.664" y="1166.3" width="12.6144" height="12.6144"/>
  <rect class="fil12" x="923.578" y="1166.3" width="12.6144" height="12.6144"/>
  <rect class="fil12" x="944.493" y="1166.3" width="12.6144" height="12.6144"/>
  <rect class="fil12" x="965.407" y="1166.3" width="12.6144" height="12.6144"/>
  <rect class="fil12" x="986.322" y="1166.3" width="12.6144" height="12.6144"/>
  <rect class="fil12" x="1007.24" y="1166.3" width="12.6144" height="12.6144"/>
  <rect class="fil12" x="1028.15" y="1166.3" width="12.6144" height="12.6144"/>
  <rect class="fil12" x="1049.07" y="1166.3" width="12.6144" height="12.6144"/>
  <rect class="fil12" x="1069.98" y="1166.3" width="12.6144" height="12.6144"/>
  <rect class="fil12" x="1090.89" y="1166.3" width="12.6144" height="12.6144"/>
  <rect class="fil12" x="1111.81" y="1166.3" width="12.6144" height="12.6144"/>
  <rect class="fil12" x="1132.72" y="1166.3" width="12.6144" height="12.6144"/>
  <rect class="fil12" x="1153.64" y="1166.3" width="12.6144" height="12.6144"/>
  <rect class="fil12" x="1174.55" y="1166.3" width="12.6144" height="12.6144"/>
  <path class="fil8" d="M741.79 1216.31l564.421 0c6.6189,0 12.0343,5.42717 12.0343,12.0343l0 34.3677c0,6.60709 -5.42717,12.0331 -12.0343,12.0331l-564.421 0c-6.60709,0 -12.0331,-5.41418 -12.0331,-12.0331l0 -34.3677c0,-6.6189 5.41418,-12.0343 12.0331,-12.0343z"/>
  <circle class="fil9" cx="759.214" cy="1246.48" r="10.9484"/>
  <circle class="fil9" cx="787.698" cy="1246.48" r="10.9484"/>
  <circle class="fil9" cx="816.183" cy="1246.48" r="10.9484"/>
  <circle class="fil10" cx="1260.63" cy="1246.48" r="10.9484"/>
  <circle class="fil10" cx="1289.12" cy="1246.48" r="10.9484"/>
  <rect class="fil11" x="841.41" y="1230.92" width="365.18" height="29.2146"/>
  <rect class="fil12" x="860.835" y="1239.33" width="12.6144" height="12.6144"/>
  <rect class="fil12" x="881.749" y="1239.33" width="12.6144" height="12.6144"/>
  <rect class="fil12" x="902.664" y="1239.33" width="12.6144" height="12.6144"/>
  <rect class="fil12" x="923.578" y="1239.33" width="12.6144" height="12.6144"/>
  <rect class="fil12" x="944.493" y="1239.33" width="12.6144" height="12.6144"/>
  <rect class="fil12" x="965.407" y="1239.33" width="12.6144" height="12.6144"/>
  <rect class="fil12" x="986.322" y="1239.33" width="12.6144" height="12.6144"/>
  <rect class="fil12" x="1007.24" y="1239.33" width="12.6144" height="12.6144"/>
  <rect class="fil12" x="1028.15" y="1239.33" width="12.6144" height="12.6144"/>
  <rect class="fil12" x="1049.07" y="1239.33" width="12.6144" height="12.6144"/>
  <rect class="fil12" x="1069.98" y="1239.33" width="12.6144" height="12.6144"/>
  <rect class="fil12" x="1090.89" y="1239.33" width="12.6144" height="12.6144"/>
  <rect class="fil12" x="1111.81" y="1239.33" width="12.6144" height="12.6144"/>
  <rect class="fil12" x="1132.72" y="1239.33" width="12.6144" height="12.6144"/>
  <rect class="fil12" x="1153.64" y="1239.33" width="12.6144" height="12.6144"/>
  <rect class="fil12" x="1174.55" y="1239.33" width="12.6144" height="12.6144"/>
  <path class="fil8" d="M741.79 1289.35l564.421 0c6.6189,0 12.0343,5.42717 12.0343,12.0343l0 34.3666c0,6.60709 -5.42717,12.0343 -12.0343,12.0343l-564.421 0c-6.60709,0 -12.0331,-5.41536 -12.0331,-12.0343l0 -34.3666c0,-6.6189 5.41418,-12.0343 12.0331,-12.0343z"/>
  <circle class="fil9" cx="759.214" cy="1319.51" r="10.9484"/>
  <circle class="fil9" cx="787.698" cy="1319.51" r="10.9484"/>
  <circle class="fil9" cx="816.183" cy="1319.51" r="10.9484"/>
  <circle class="fil10" cx="1260.63" cy="1319.51" r="10.9484"/>
  <circle class="fil10" cx="1289.12" cy="1319.51" r="10.9484"/>
  <rect class="fil11" x="841.41" y="1303.95" width="365.18" height="29.2146"/>
  <rect class="fil12" x="860.835" y="1312.37" width="12.6144" height="12.6144"/>
  <rect class="fil12" x="881.749" y="1312.37" width="12.6144" height="12.6144"/>
  <rect class="fil12" x="902.664" y="1312.37" width="12.6144" height="12.6144"/>
  <rect class="fil12" x="923.578" y="1312.37" width="12.6144" height="12.6144"/>
  <rect class="fil12" x="944.493" y="1312.37" width="12.6144" height="12.6144"/>
  <rect class="fil12" x="965.407" y="1312.37" width="12.6144" height="12.6144"/>
  <rect class="fil12" x="986.322" y="1312.37" width="12.6144" height="12.6144"/>
  <rect class="fil12" x="1007.24" y="1312.37" width="12.6144" height="12.6144"/>
  <rect class="fil12" x="1028.15" y="1312.37" width="12.6144" height="12.6144"/>
  <rect class="fil12" x="1049.07" y="1312.37" width="12.6144" height="12.6144"/>
  <rect class="fil12" x="1069.98" y="1312.37" width="12.6144" height="12.6144"/>
  <rect class="fil12" x="1090.89" y="1312.37" width="12.6144" height="12.6144"/>
  <rect class="fil12" x="1111.81" y="1312.37" width="12.6144" height="12.6144"/>
  <rect class="fil12" x="1132.72" y="1312.37" width="12.6144" height="12.6144"/>
  <rect class="fil12" x="1153.64" y="1312.37" width="12.6144" height="12.6144"/>
  <rect class="fil12" x="1174.55" y="1312.37" width="12.6144" height="12.6144"/>
  <path class="fil8" d="M741.79 1362.38l564.421 0c6.6189,0 12.0343,5.42599 12.0343,12.0331l0 34.3677c0,6.60709 -5.42717,12.0331 -12.0343,12.0331l-564.421 0c-6.60709,0 -12.0331,-5.41418 -12.0331,-12.0331l0 -34.3677c0,-6.6189 5.41418,-12.0331 12.0331,-12.0331z"/>
  <circle class="fil9" cx="759.214" cy="1392.55" r="10.9484"/>
  <circle class="fil9" cx="787.698" cy="1392.55" r="10.9484"/>
  <circle class="fil9" cx="816.183" cy="1392.55" r="10.9484"/>
  <circle class="fil10" cx="1260.63" cy="1392.55" r="10.9484"/>
  <circle class="fil10" cx="1289.12" cy="1392.55" r="10.9484"/>
  <rect class="fil11" x="841.41" y="1376.99" width="365.18" height="29.2146"/>
  <rect class="fil12" x="860.835" y="1385.4" width="12.6144" height="12.6144"/>
  <rect class="fil12" x="881.749" y="1385.4" width="12.6144" height="12.6144"/>
  <rect class="fil12" x="902.664" y="1385.4" width="12.6144" height="12.6144"/>
  <rect class="fil12" x="923.578" y="1385.4" width="12.6144" height="12.6144"/>
  <rect class="fil12" x="944.493" y="1385.4" width="12.6144" height="12.6144"/>
  <rect class="fil12" x="965.407" y="1385.4" width="12.6144" height="12.6144"/>
  <rect class="fil12" x="986.322" y="1385.4" width="12.6144" height="12.6144"/>
  <rect class="fil12" x="1007.24" y="1385.4" width="12.6144" height="12.6144"/>
  <rect class="fil12" x="1028.15" y="1385.4" width="12.6144" height="12.6144"/>
  <rect class="fil12" x="1049.07" y="1385.4" width="12.6144" height="12.6144"/>
  <rect class="fil12" x="1069.98" y="1385.4" width="12.6144" height="12.6144"/>
  <rect class="fil12" x="1090.89" y="1385.4" width="12.6144" height="12.6144"/>
  <rect class="fil12" x="1111.81" y="1385.4" width="12.6144" height="12.6144"/>
  <rect class="fil12" x="1132.72" y="1385.4" width="12.6144" height="12.6144"/>
  <rect class="fil12" x="1153.64" y="1385.4" width="12.6144" height="12.6144"/>
  <rect class="fil12" x="1174.55" y="1385.4" width="12.6144" height="12.6144"/>
  <circle class="fil6" cx="1293.51" cy="971.409" r="13.016"/>
  <circle class="fil11" cx="1293.51" cy="971.409" r="8.27371"/>
  <circle class="fil6" cx="754.495" cy="971.409" r="13.016"/>
  <circle class="fil11" cx="754.495" cy="971.409" r="8.27371"/>
 </g>
</svg>
